<svg xmlns="http://www.w3.org/2000/svg" fill="none" viewBox="0 0 24 24" focusable="false">
	<path fill="currentColor" d="M12 9.7c0-.387-.318-.708-.694-.62a3.001 3.001 0 1 0 3.613 3.614c.09-.376-.233-.694-.62-.694h-1a1.3 1.3 0 0 1-1.3-1.3v-1Z" />
	<path fill="currentColor" fill-rule="evenodd" d="M2.773 10.719C4.136 8.699 7.275 5 12 5c4.724 0 7.864 3.698 9.227 5.719.528.782.528 1.78 0 2.563C19.864 15.301 16.724 19 12 19c-4.725 0-7.864-3.698-9.227-5.719a2.272 2.272 0 0 1 0-2.563ZM7.35 12a4.65 4.65 0 1 1 9.3 0 4.65 4.65 0 0 1-9.3 0Z" clip-rule="evenodd" />
</svg>
