<svg width="32" height="32" viewBox="0 0 32 32" fill="none" xmlns="http://www.w3.org/2000/svg">
	<path d="M10.4038 12.6433C11.6397 12.6433 
              12.6415 11.6415 12.6415 10.4056C12.6415
               9.1697 11.6397 8.16782 10.4038 8.16782C9.1679 
               8.16782 8.16602 9.1697 8.16602 10.4056C8.16602
                11.6415 9.1679 12.6433 10.4038 12.6433Z" fill="white" />
	<path fillRule="evenodd" clipRule="evenodd" d="M7.69043 3.69232C5.48129 
              3.69232 3.69043 5.48319 3.69043 
              7.69233V24.3077C3.69043 25.0923 
              3.84399 25.708 4.30664 26.4417C4.67507
              27.0261 5.10367 27.337 5.55766 27.6923C6.17499 
              28.0821 6.90637 28.3077 7.69043 28.3077H24.3058C25.0899
               28.3077 25.8213 28.0821 26.4386 27.6923L27.0757 27.1935C27.1153 
               27.1554 27.1542 27.1166 27.1922 27.077L27.6913 
               26.4391C28.0806 25.8221 28.3058 25.0912 28.3058 
               24.3077V7.69232C28.3058 5.48318 26.5149 3.69232 
               24.3058 3.69232H7.69043ZM24.3058 5.69232H7.69043C6.58586 
               5.69232 5.69043 6.58775 5.69043 7.69233V19.0615L12.1913 
               17.5447C13.0852 17.3361 14.0001 17.2308 14.918 
               17.2308H17.0782C17.9961 17.2308 18.911 17.3361 
               19.805 17.5447L26.3058 19.0615V7.69232C26.3058 
               6.58776 25.4104 5.69232 24.3058 5.69232Z" fill="white" />
</svg>
